<?xml version="1.0" encoding="utf-8"?>
<!-- Svg Vector Icons : http://www.onlinewebfonts.com/icon -->
<!DOCTYPE svg PUBLIC "-//W3C//DTD SVG 1.1//EN" "http://www.w3.org/Graphics/SVG/1.1/DTD/svg11.dtd">
<svg version="1.1" xmlns="http://www.w3.org/2000/svg" xmlns:xlink="http://www.w3.org/1999/xlink" x="0px" y="0px" viewBox="0 0 1000 1000" enable-background="new 0 0 1000 1000" xml:space="preserve">
<metadata> Svg Vector Icons : http://www.onlinewebfonts.com/icon </metadata>
<g><g transform="translate(0.000000,512.000000) scale(0.100000,-0.100000)"><path d="M4611.7,5014.3c-498.1-49.8-674.4-78.5-1187.8-191.6c-220.3-49.8-433-109.2-498.1-139.8c-164.8-76.6-316.1-224.2-442.5-431.1c-168.6-274-197.3-314.2-385.1-515.4c-249.1-264.4-295-367.8-367.8-793.2l-57.5-329.5l-268.2-335.3c-149.4-185.8-285.5-369.8-306.5-410c-109.2-214.6-136-534.5-61.3-733.8c61.3-162.8,147.5-279.7,272.1-367.8c103.4-70.9,113-84.3,103.4-137.9c-78.5-480.9-84.3-961.7-19.2-1513.5c67.1-580.5,116.9-789.3,277.8-1159.1c201.2-461.7,339.1-630.3,1367.9-1659.1c741.4-741.4,906.2-896.6,1023-965.6c95.8-55.6,170.5-86.2,231.8-92c82.4-7.7,99.6-1.9,157.1,49.8l65.1,57.5l9.6,266.3l9.6,264.4H4947h411.9l9.6-264.4l9.6-266.3l70.9-65.1c80.5-72.8,113-76.6,273.9-36.4c141.8,38.3,323.8,134.1,498.1,268.2c149.4,113,1572.9,1536.5,1733.8,1733.8c308.4,375.5,532.6,831.5,634.1,1291.3c59.4,270.1,132.2,948.3,132.2,1243.4c0,143.7-17.3,415.7-38.3,601.6L8644.5,721l101.5,90c243.3,218.4,325.7,597.7,203.1,931.1c-51.7,141.8-103.5,218.4-342.9,517.3l-193.5,237.6l-65.1,388.9c-84.3,490.4-122.6,576.7-379.3,850.6c-187.7,201.2-216.5,241.4-385.1,515.4c-126.4,206.9-277.8,354.4-442.5,431.1c-160.9,74.7-869.8,231.8-1331.5,295C5600.3,5006.7,4782.3,5031.6,4611.7,5014.3z M5847.5,4633.1c187.7-28.7,674.4-124.5,684-132.2c3.8-1.9-132.2-413.8-298.9-913.9l-302.7-908.1h-896.6h-896.6L3833.9,3587c-166.7,500-302.7,911.9-298.9,913.9c21.1,21.1,726.1,141.8,980.9,168.6C4715.2,4688.6,5654,4663.7,5847.5,4633.1z M3320.5,4054.5c65.1-199.3,122.6-369.8,126.4-381.3c3.8-11.5-38.3-30.7-95.8-44.1c-182-40.2-369.7-143.7-500-275.9c-155.2-155.2-249.1-333.4-318-601.6l-21.1-82.4h-237.6c-208.8,0-239.5,3.8-239.5,30.7c0,95.8,84.3,501.9,116.9,567.1c21.1,42.1,118.8,160.9,214.6,264.4C2464.1,3633,2590.6,3792,2648,3884c249.1,390.8,258.6,402.3,364,467.5C3190.2,4456.8,3182.6,4464.5,3320.5,4054.5z M7039.1,4361c109.2-59.4,162.9-124.5,339.1-415.7c78.5-126.4,193.5-277.8,314.2-408.1c105.4-113,208.8-243.3,228-289.3c32.6-72.8,111.1-457.9,111.1-544.1c0-30.6-24.9-34.5-237.6-34.5h-235.6l-30.6,130.3c-105.4,429.1-413.8,751-800.8,831.5c-63.2,13.4-111.1,32.6-107.3,44.1c3.8,9.6,61.3,180.1,126.5,379.3C6882,4458.7,6874.3,4451.1,7039.1,4361z M3665.3,3020c53.6-166.7,103.4-314.2,109.2-325.7c5.8-19.2-92-24.9-454-24.9c-254.8,0-461.7,3.8-461.7,5.7c0,3.8,17.3,57.5,38.3,120.7c88.1,256.7,289.3,446.4,530.7,503.9C3567.6,3332.2,3556.1,3343.7,3665.3,3020z M6776.6,3255.6c182-82.4,323.8-243.3,394.6-446.4c19.2-59.4,36.4-114.9,36.4-124.5c0-7.7-206.9-15.3-461.7-15.3c-362.1,0-459.8,5.7-454.1,24.9c5.7,11.5,55.6,159,111.1,327.6l99.6,302.7l88.1-11.5C6638.7,3307.3,6721.1,3280.5,6776.6,3255.6z M3801.4,2314.9c5.7-5.7-51.7-312.3-124.5-680.1l-134.1-670.5h-921.5c-557.5,0-948.3,7.7-990.5,19.2c-111.1,30.7-191.6,97.7-254.8,210.7c-80.5,143.7-84.3,306.5-7.7,459.8c44.1,90.1,306.5,436.8,467.5,618.8l46,51.7h954.1C3360.7,2324.5,3795.6,2320.7,3801.4,2314.9z M5914.5,2282.4c19.2-78.5,258.6-1287.4,258.6-1302.8c0-7.7-513.4-15.3-1139.9-15.3c-626.5,0-1139.9,7.7-1139.9,15.3c0,15.3,239.5,1224.2,258.6,1302.8l9.6,42.1h871.7h871.7L5914.5,2282.4z M8349.5,2039.1c293.1-369.8,323.8-427.2,323.8-616.9c0-128.4-7.7-155.2-57.5-239.5c-65.1-103.4-149.4-168.6-256.7-199.2c-42.1-11.5-419.6-19.2-952.1-19.2h-883.2l-134.1,670.5c-72.8,367.8-130.3,674.4-124.5,680.1c5.8,5.7,425.3,9.6,933,9.6h923.4L8349.5,2039.1z M1839.6,456.6c90-613.1,461.7-1260.6,1061.4-1841.1c243.3-233.7,488.5-406.2,772.1-544.1c180.1-86.2,521.1-210.7,578.6-210.7c13.4,0,24.9-9.6,24.9-21.1c0-28.7-408.1-783.6-423.4-783.6c-5.7,0-134.1,183.9-283.5,410l-274,410l-754.8,503.9c-415.7,275.9-762.5,511.5-772.1,523c-9.6,11.5-38.3,214.6-61.3,448.3c-44.1,427.2-44.1,431.1-9.6,766.3c47.9,492.4,49.8,502,86.2,502C1810.8,619.4,1820.4,586.9,1839.6,456.6z M3535.1,201.8L3950.8-214l-168.6-168.6l-166.7-166.7h-501.9h-500L2531.2-419c-212.7,337.2-362.1,735.7-362.1,973.3v65.1h475.1h473.2L3535.1,201.8z M6134.8,284.2L5799.6-51.1h-766.3h-766.3l-335.3,335.3l-335.3,335.3h1436.9h1436.9L6134.8,284.2z M7891.6,500.6c-24.9-260.5-160.9-611.1-356.4-919.6l-82.4-130.3h-500h-502l-166.7,166.7L6115.7-214l415.7,415.8l417.6,417.6h477.1h477L7891.6,500.6z M8318.9,604.1c0-9.6,17.2-170.5,38.3-360.2c46-417.6,46-475.1,7.7-852.5l-32.6-298.9l-787.4-615l-789.3-613.1l-293.1-519.2c-162.8-287.4-296.9-517.3-300.8-513.4c-19.2,17.2-524.9,957.9-524.9,973.2c0,9.6,11.5,17.2,26.8,17.2c13.4,0,111.1,24.9,214.6,55.6c561.3,160.9,973.2,410,1388.9,839.1C7816.9-715.9,8144.5-120.1,8225,456.6c19.2,137.9,28.7,162.9,59.4,162.9C8303.5,619.4,8318.9,611.8,8318.9,604.1z M4860.8-1152.7V-1919l-95.8,5.7c-270.1,17.2-641.8,126.4-934.9,274c-275.9,137.9-454.1,268.2-712.7,519.2L2887.5-896l431.1,1.9h429.2l262.5,258.6l260.5,260.6l295-5.8l295-5.7V-1152.7z M6058.2-635.4l260.6-258.6h429.1l431.1-1.9l-229.9-224.1c-258.6-252.9-429.1-377.4-710.8-517.3c-297-149.5-664.8-258.7-936.8-275.9l-95.8-5.7l-5.8,747.2c-1.9,410,0,758.7,5.8,770.2c5.7,19.2,84.3,24.9,298.9,24.9h291.2L6058.2-635.4z M8213.5-1576.1c-65.1-222.2-243.3-586.3-394.6-802.8c-84.3-118.8-310.4-362.1-728-783.6l-605.4-611.1l-59.4,111.1c-34.5,61.3-61.3,120.7-61.3,132.2c0,11.5,149.4,281.6,331.4,599.6l329.5,578.6l613.1,477c337.2,262.5,615,475.1,618.8,473.2C8259.5-1403.7,8240.3-1482.2,8213.5-1576.1z M2437.3-1953.5c300.8-199.3,569-385.1,597.7-410c26.8-26.8,182-247.1,342.9-488.5l293.1-440.6l-82.4-155.2c-46-86.2-93.9-168.6-107.3-182c-17.2-19.1-136,92-567.1,526.9c-570.9,580.5-693.5,729.9-862.1,1046c-107.3,206.9-222.2,502-185.8,480.9C1879.8-1583.8,2136.5-1754.3,2437.3-1953.5z M5012.2-2235.2h252.9l484.7-892.8l484.7-890.8l-44.1-49.8c-95.8-101.5-415.7-331.4-461.7-331.4c-5.8,0-15.3,70.9-19.2,159c-9.6,172.4-34.5,237.6-134.1,337.2c-122.6,124.5-168.6,136-628.4,136c-471.3,0-511.5-9.6-638-151.3c-88.1-97.7-109.2-147.5-124.5-308.5l-13.4-124.5L3945-4131.8L3719-3911.5l463.6,848.7l463.6,850.6l57.5-11.5C4734.4-2229.4,4874.2-2235.2,5012.2-2235.2z"/></g></g>
</svg>