<svg width="802" height="981" viewBox="0 0 802 981" fill="none" xmlns="http://www.w3.org/2000/svg">
<path d="M362.17 0.570054C312.36 5.55005 294.73 8.42001 243.39 19.73C221.36 24.71 200.09 30.65 193.58 33.71C177.1 41.37 161.97 56.1301 149.33 76.8201C132.47 104.22 129.6 108.24 110.82 128.36C85.91 154.8 81.32 165.14 74.04 207.68L68.29 240.63L41.47 274.16C26.53 292.74 12.92 311.14 10.82 315.16C-0.0999901 336.62 -2.77998 368.61 4.69002 388.54C10.82 404.82 19.44 416.51 31.9 425.32C42.24 432.41 43.2 433.75 42.24 439.11C34.39 487.2 33.81 535.28 40.32 590.46C47.03 648.51 52.01 669.39 68.1 706.37C88.22 752.54 102.01 769.4 204.89 872.28C279.03 946.42 295.51 961.94 307.19 968.84C316.77 974.4 324.24 977.46 330.37 978.04C338.61 978.81 340.33 978.23 346.08 973.06L352.59 967.31L353.55 940.68L354.51 914.24H395.7H436.89L437.85 940.68L438.81 967.31L445.9 973.82C453.95 981.1 457.2 981.48 473.29 977.46C487.47 973.63 505.67 964.05 523.1 950.64C538.04 939.34 680.39 796.99 696.48 777.26C727.32 739.71 749.74 694.11 759.89 648.13C765.83 621.12 773.11 553.3 773.11 523.79C773.11 509.42 771.38 482.22 769.28 463.63L765.45 429.9L775.6 420.9C799.93 399.06 808.17 361.13 795.91 327.79C790.74 313.61 785.56 305.95 761.62 276.06L742.27 252.3L735.76 213.41C727.33 164.37 723.5 155.74 697.83 128.35C679.06 108.23 676.18 104.21 659.32 76.81C646.68 56.12 631.54 41.37 615.07 33.7C598.98 26.23 528.09 10.52 481.92 4.20003C461.03 1.33003 379.23 -1.15995 362.17 0.570054ZM485.75 38.69C504.52 41.56 553.19 51.14 554.15 51.91C554.53 52.1 540.93 93.29 524.26 143.3L493.99 234.11H404.33H314.67L284.39 143.3C267.72 93.3 254.12 52.11 254.5 51.91C256.61 49.8 327.11 37.73 352.59 35.05C372.52 33.14 466.4 35.63 485.75 38.69ZM233.05 96.55C239.56 116.48 245.31 133.53 245.69 134.68C246.07 135.83 241.86 137.75 236.11 139.09C217.91 143.11 199.14 153.46 186.11 166.68C170.59 182.2 161.2 200.02 154.31 226.84L152.2 235.08H128.44C107.56 235.08 104.49 234.7 104.49 232.01C104.49 222.43 112.92 181.82 116.18 175.3C118.29 171.09 128.06 159.21 137.64 148.86C147.41 138.7 160.06 122.8 165.8 113.6C190.71 74.52 191.66 73.37 202.2 66.85C220.02 56.32 219.26 55.55 233.05 96.55ZM604.91 65.9C615.83 71.84 621.2 78.3501 638.82 107.47C646.67 120.11 658.17 135.25 670.24 148.28C680.78 159.58 691.12 172.61 693.04 177.21C696.3 184.49 704.15 223 704.15 231.62C704.15 234.68 701.66 235.07 680.39 235.07H656.83L653.77 222.04C643.23 179.13 612.39 146.94 573.69 138.89C567.37 137.55 562.58 135.63 562.96 134.48C563.34 133.52 569.09 116.47 575.61 96.55C589.2 56.13 588.43 56.89 604.91 65.9ZM267.53 200C272.89 216.67 277.87 231.42 278.45 232.57C279.03 234.49 269.25 235.06 233.05 235.06C207.57 235.06 186.88 234.68 186.88 234.49C186.88 234.11 188.61 228.74 190.71 222.42C199.52 196.75 219.64 177.78 243.78 172.03C257.76 168.78 256.61 167.63 267.53 200ZM578.66 176.44C596.86 184.68 611.04 200.77 618.12 221.08C620.04 227.02 621.76 232.57 621.76 233.53C621.76 234.3 601.07 235.06 575.59 235.06C539.38 235.06 529.61 234.49 530.18 232.57C530.75 231.42 535.74 216.67 541.29 199.81L551.25 169.54L560.06 170.69C564.87 171.27 573.11 173.95 578.66 176.44ZM281.14 270.51C281.71 271.08 275.97 301.74 268.69 338.52L255.28 405.57H163.13C107.38 405.57 68.3 404.8 64.08 403.65C52.97 400.58 44.92 393.88 38.6 382.58C30.55 368.21 30.17 351.93 37.83 336.6C42.24 327.59 68.48 292.92 84.58 274.72L89.18 269.55H184.59C237.07 269.55 280.56 269.93 281.14 270.51ZM492.45 273.76C494.37 281.61 518.31 402.5 518.31 404.04C518.31 404.81 466.97 405.57 404.32 405.57C341.67 405.57 290.33 404.8 290.33 404.04C290.33 402.51 314.28 281.62 316.19 273.76L317.15 269.55H404.32H491.49L492.45 273.76ZM735.95 298.09C765.26 335.07 768.33 340.81 768.33 359.78C768.33 372.62 767.56 375.3 762.58 383.73C756.07 394.07 747.64 400.59 736.91 403.65C732.7 404.8 694.95 405.57 641.7 405.57H553.38L539.97 338.52C532.69 301.74 526.94 271.08 527.52 270.51C528.1 269.94 570.05 269.55 620.82 269.55H713.16L735.95 298.09ZM84.96 456.34C93.96 517.65 131.13 582.4 191.1 640.45C215.43 663.82 239.95 681.07 268.31 694.86C286.32 703.48 320.42 715.93 326.17 715.93C327.51 715.93 328.66 716.89 328.66 718.04C328.66 720.91 287.85 796.4 286.32 796.4C285.75 796.4 272.91 778.01 257.97 755.4L230.57 714.4L155.09 664.01C113.52 636.42 78.84 612.86 77.88 611.71C76.92 610.56 74.05 590.25 71.75 566.88C67.34 524.16 67.34 523.77 70.79 490.25C75.58 441.01 75.77 440.05 79.41 440.05C82.08 440.06 83.04 443.31 84.96 456.34ZM254.51 481.82L296.08 523.4L279.22 540.26L262.55 556.93H212.36H162.36L154.12 543.9C132.85 510.18 117.91 470.33 117.91 446.57V440.06H165.42H212.74L254.51 481.82ZM514.48 473.58L480.96 507.11H404.33H327.7L294.17 473.58L260.64 440.05H404.33H548.02L514.48 473.58ZM690.16 451.94C687.67 477.99 674.07 513.05 654.52 543.9L646.28 556.93H596.28H546.08L529.41 540.26L512.57 523.4L554.14 481.82L595.9 440.06H643.61H691.31L690.16 451.94ZM732.89 441.59C732.89 442.55 734.61 458.64 736.72 477.61C741.32 519.37 741.32 525.12 737.49 562.86L734.23 592.75L655.49 654.25L576.56 715.56L547.25 767.48C530.97 796.22 517.56 819.21 517.17 818.82C515.25 817.1 464.68 723.03 464.68 721.5C464.68 720.54 465.83 719.78 467.36 719.78C468.7 719.78 478.47 717.29 488.82 714.22C544.95 698.13 586.14 673.22 627.71 630.31C682.69 573.59 715.45 514.01 723.5 456.34C725.42 442.55 726.37 440.05 729.44 440.05C731.35 440.06 732.89 440.82 732.89 441.59ZM387.08 617.27V693.9L377.5 693.33C350.49 691.61 313.32 680.69 284.01 665.93C256.42 652.14 238.6 639.11 212.74 614.01L189.75 591.6L232.86 591.41H275.78L302.03 565.55L328.08 539.49L357.58 540.07L387.08 540.64V617.27V617.27ZM506.82 565.54L532.88 591.4H575.79L618.9 591.59L595.91 614C570.05 639.29 553 651.74 524.83 665.73C495.13 680.68 458.35 691.6 431.15 693.32L421.57 693.89L420.99 619.17C420.8 578.17 420.99 543.3 421.57 542.15C422.14 540.23 430 539.66 451.46 539.66H480.58L506.82 565.54ZM722.35 659.61C715.84 681.83 698.02 718.24 682.89 739.89C674.46 751.77 651.85 776.1 610.09 818.25L549.55 879.36L543.61 868.25C540.16 862.12 537.48 856.18 537.48 855.03C537.48 853.88 552.42 826.87 570.62 795.07L603.57 737.21L664.88 689.51C698.6 663.26 726.38 642 726.76 642.19C726.95 642.37 725.03 650.22 722.35 659.61ZM144.73 697.35C174.81 717.28 201.63 735.86 204.5 738.35C207.18 741.03 222.7 763.06 238.79 787.2L268.1 831.26L259.86 846.78C255.26 855.4 250.47 863.64 249.13 864.98C247.41 866.89 235.53 855.78 192.42 812.29C135.33 754.24 123.07 739.3 106.21 707.69C95.48 687 83.99 657.49 87.63 659.6C88.98 660.38 114.65 677.43 144.73 697.35ZM402.22 725.52H427.51L475.98 814.8L524.45 903.88L520.04 908.86C510.46 919.01 478.47 942 473.87 942C473.29 942 472.34 934.91 471.95 926.1C470.99 908.86 468.5 902.34 458.54 892.38C446.28 879.93 441.68 878.78 395.7 878.78C348.57 878.78 344.55 879.74 331.9 893.91C323.09 903.68 320.98 908.66 319.45 924.76L318.11 937.21L295.5 915.18L272.9 893.15L319.26 808.28L365.62 723.22L371.37 724.37C374.44 724.94 388.42 725.52 402.22 725.52Z" fill="white"/>
</svg>
